<svg class="lds-spinner" width="37px"  height="37px"  xmlns="http://www.w3.org/2000/svg" xmlns:xlink="http://www.w3.org/1999/xlink" viewBox="0 0 100 100" preserveAspectRatio="xMidYMid" style="background: none;"><g transform="rotate(0 50 50)">
  <rect x="46" y="15" rx="9.200000000000001" ry="3" width="8" height="10" fill="#ff727d">
    <animate attributeName="opacity" values="1;0" times="0;1" dur="1.1s" begin="-1.078s" repeatCount="indefinite"></animate>
  </rect>
</g><g transform="rotate(7.2 50 50)">
  <rect x="46" y="15" rx="9.200000000000001" ry="3" width="8" height="10" fill="#ff727d">
    <animate attributeName="opacity" values="1;0" times="0;1" dur="1.1s" begin="-1.056s" repeatCount="indefinite"></animate>
  </rect>
</g><g transform="rotate(14.4 50 50)">
  <rect x="46" y="15" rx="9.200000000000001" ry="3" width="8" height="10" fill="#ff727d">
    <animate attributeName="opacity" values="1;0" times="0;1" dur="1.1s" begin="-1.034s" repeatCount="indefinite"></animate>
  </rect>
</g><g transform="rotate(21.6 50 50)">
  <rect x="46" y="15" rx="9.200000000000001" ry="3" width="8" height="10" fill="#ff727d">
    <animate attributeName="opacity" values="1;0" times="0;1" dur="1.1s" begin="-1.012s" repeatCount="indefinite"></animate>
  </rect>
</g><g transform="rotate(28.8 50 50)">
  <rect x="46" y="15" rx="9.200000000000001" ry="3" width="8" height="10" fill="#ff727d">
    <animate attributeName="opacity" values="1;0" times="0;1" dur="1.1s" begin="-0.9900000000000001s" repeatCount="indefinite"></animate>
  </rect>
</g><g transform="rotate(36 50 50)">
  <rect x="46" y="15" rx="9.200000000000001" ry="3" width="8" height="10" fill="#ff727d">
    <animate attributeName="opacity" values="1;0" times="0;1" dur="1.1s" begin="-0.9680000000000001s" repeatCount="indefinite"></animate>
  </rect>
</g><g transform="rotate(43.2 50 50)">
  <rect x="46" y="15" rx="9.200000000000001" ry="3" width="8" height="10" fill="#ff727d">
    <animate attributeName="opacity" values="1;0" times="0;1" dur="1.1s" begin="-0.9460000000000001s" repeatCount="indefinite"></animate>
  </rect>
</g><g transform="rotate(50.4 50 50)">
  <rect x="46" y="15" rx="9.200000000000001" ry="3" width="8" height="10" fill="#ff727d">
    <animate attributeName="opacity" values="1;0" times="0;1" dur="1.1s" begin="-0.924s" repeatCount="indefinite"></animate>
  </rect>
</g><g transform="rotate(57.6 50 50)">
  <rect x="46" y="15" rx="9.200000000000001" ry="3" width="8" height="10" fill="#ff727d">
    <animate attributeName="opacity" values="1;0" times="0;1" dur="1.1s" begin="-0.902s" repeatCount="indefinite"></animate>
  </rect>
</g><g transform="rotate(64.8 50 50)">
  <rect x="46" y="15" rx="9.200000000000001" ry="3" width="8" height="10" fill="#ff727d">
    <animate attributeName="opacity" values="1;0" times="0;1" dur="1.1s" begin="-0.88s" repeatCount="indefinite"></animate>
  </rect>
</g><g transform="rotate(72 50 50)">
  <rect x="46" y="15" rx="9.200000000000001" ry="3" width="8" height="10" fill="#ff727d">
    <animate attributeName="opacity" values="1;0" times="0;1" dur="1.1s" begin="-0.8580000000000001s" repeatCount="indefinite"></animate>
  </rect>
</g><g transform="rotate(79.2 50 50)">
  <rect x="46" y="15" rx="9.200000000000001" ry="3" width="8" height="10" fill="#ff727d">
    <animate attributeName="opacity" values="1;0" times="0;1" dur="1.1s" begin="-0.8360000000000001s" repeatCount="indefinite"></animate>
  </rect>
</g><g transform="rotate(86.4 50 50)">
  <rect x="46" y="15" rx="9.200000000000001" ry="3" width="8" height="10" fill="#ff727d">
    <animate attributeName="opacity" values="1;0" times="0;1" dur="1.1s" begin="-0.8140000000000001s" repeatCount="indefinite"></animate>
  </rect>
</g><g transform="rotate(93.6 50 50)">
  <rect x="46" y="15" rx="9.200000000000001" ry="3" width="8" height="10" fill="#ff727d">
    <animate attributeName="opacity" values="1;0" times="0;1" dur="1.1s" begin="-0.792s" repeatCount="indefinite"></animate>
  </rect>
</g><g transform="rotate(100.8 50 50)">
  <rect x="46" y="15" rx="9.200000000000001" ry="3" width="8" height="10" fill="#ff727d">
    <animate attributeName="opacity" values="1;0" times="0;1" dur="1.1s" begin="-0.77s" repeatCount="indefinite"></animate>
  </rect>
</g><g transform="rotate(108 50 50)">
  <rect x="46" y="15" rx="9.200000000000001" ry="3" width="8" height="10" fill="#ff727d">
    <animate attributeName="opacity" values="1;0" times="0;1" dur="1.1s" begin="-0.7480000000000001s" repeatCount="indefinite"></animate>
  </rect>
</g><g transform="rotate(115.2 50 50)">
  <rect x="46" y="15" rx="9.200000000000001" ry="3" width="8" height="10" fill="#ff727d">
    <animate attributeName="opacity" values="1;0" times="0;1" dur="1.1s" begin="-0.7260000000000001s" repeatCount="indefinite"></animate>
  </rect>
</g><g transform="rotate(122.4 50 50)">
  <rect x="46" y="15" rx="9.200000000000001" ry="3" width="8" height="10" fill="#ff727d">
    <animate attributeName="opacity" values="1;0" times="0;1" dur="1.1s" begin="-0.7040000000000001s" repeatCount="indefinite"></animate>
  </rect>
</g><g transform="rotate(129.6 50 50)">
  <rect x="46" y="15" rx="9.200000000000001" ry="3" width="8" height="10" fill="#ff727d">
    <animate attributeName="opacity" values="1;0" times="0;1" dur="1.1s" begin="-0.682s" repeatCount="indefinite"></animate>
  </rect>
</g><g transform="rotate(136.8 50 50)">
  <rect x="46" y="15" rx="9.200000000000001" ry="3" width="8" height="10" fill="#ff727d">
    <animate attributeName="opacity" values="1;0" times="0;1" dur="1.1s" begin="-0.66s" repeatCount="indefinite"></animate>
  </rect>
</g><g transform="rotate(144 50 50)">
  <rect x="46" y="15" rx="9.200000000000001" ry="3" width="8" height="10" fill="#ff727d">
    <animate attributeName="opacity" values="1;0" times="0;1" dur="1.1s" begin="-0.638s" repeatCount="indefinite"></animate>
  </rect>
</g><g transform="rotate(151.2 50 50)">
  <rect x="46" y="15" rx="9.200000000000001" ry="3" width="8" height="10" fill="#ff727d">
    <animate attributeName="opacity" values="1;0" times="0;1" dur="1.1s" begin="-0.6160000000000001s" repeatCount="indefinite"></animate>
  </rect>
</g><g transform="rotate(158.4 50 50)">
  <rect x="46" y="15" rx="9.200000000000001" ry="3" width="8" height="10" fill="#ff727d">
    <animate attributeName="opacity" values="1;0" times="0;1" dur="1.1s" begin="-0.5940000000000001s" repeatCount="indefinite"></animate>
  </rect>
</g><g transform="rotate(165.6 50 50)">
  <rect x="46" y="15" rx="9.200000000000001" ry="3" width="8" height="10" fill="#ff727d">
    <animate attributeName="opacity" values="1;0" times="0;1" dur="1.1s" begin="-0.5720000000000001s" repeatCount="indefinite"></animate>
  </rect>
</g><g transform="rotate(172.8 50 50)">
  <rect x="46" y="15" rx="9.200000000000001" ry="3" width="8" height="10" fill="#ff727d">
    <animate attributeName="opacity" values="1;0" times="0;1" dur="1.1s" begin="-0.55s" repeatCount="indefinite"></animate>
  </rect>
</g><g transform="rotate(180 50 50)">
  <rect x="46" y="15" rx="9.200000000000001" ry="3" width="8" height="10" fill="#ff727d">
    <animate attributeName="opacity" values="1;0" times="0;1" dur="1.1s" begin="-0.528s" repeatCount="indefinite"></animate>
  </rect>
</g><g transform="rotate(187.2 50 50)">
  <rect x="46" y="15" rx="9.200000000000001" ry="3" width="8" height="10" fill="#ff727d">
    <animate attributeName="opacity" values="1;0" times="0;1" dur="1.1s" begin="-0.506s" repeatCount="indefinite"></animate>
  </rect>
</g><g transform="rotate(194.4 50 50)">
  <rect x="46" y="15" rx="9.200000000000001" ry="3" width="8" height="10" fill="#ff727d">
    <animate attributeName="opacity" values="1;0" times="0;1" dur="1.1s" begin="-0.48400000000000004s" repeatCount="indefinite"></animate>
  </rect>
</g><g transform="rotate(201.6 50 50)">
  <rect x="46" y="15" rx="9.200000000000001" ry="3" width="8" height="10" fill="#ff727d">
    <animate attributeName="opacity" values="1;0" times="0;1" dur="1.1s" begin="-0.462s" repeatCount="indefinite"></animate>
  </rect>
</g><g transform="rotate(208.8 50 50)">
  <rect x="46" y="15" rx="9.200000000000001" ry="3" width="8" height="10" fill="#ff727d">
    <animate attributeName="opacity" values="1;0" times="0;1" dur="1.1s" begin="-0.44s" repeatCount="indefinite"></animate>
  </rect>
</g><g transform="rotate(216 50 50)">
  <rect x="46" y="15" rx="9.200000000000001" ry="3" width="8" height="10" fill="#ff727d">
    <animate attributeName="opacity" values="1;0" times="0;1" dur="1.1s" begin="-0.41800000000000004s" repeatCount="indefinite"></animate>
  </rect>
</g><g transform="rotate(223.2 50 50)">
  <rect x="46" y="15" rx="9.200000000000001" ry="3" width="8" height="10" fill="#ff727d">
    <animate attributeName="opacity" values="1;0" times="0;1" dur="1.1s" begin="-0.396s" repeatCount="indefinite"></animate>
  </rect>
</g><g transform="rotate(230.4 50 50)">
  <rect x="46" y="15" rx="9.200000000000001" ry="3" width="8" height="10" fill="#ff727d">
    <animate attributeName="opacity" values="1;0" times="0;1" dur="1.1s" begin="-0.37400000000000005s" repeatCount="indefinite"></animate>
  </rect>
</g><g transform="rotate(237.6 50 50)">
  <rect x="46" y="15" rx="9.200000000000001" ry="3" width="8" height="10" fill="#ff727d">
    <animate attributeName="opacity" values="1;0" times="0;1" dur="1.1s" begin="-0.35200000000000004s" repeatCount="indefinite"></animate>
  </rect>
</g><g transform="rotate(244.8 50 50)">
  <rect x="46" y="15" rx="9.200000000000001" ry="3" width="8" height="10" fill="#ff727d">
    <animate attributeName="opacity" values="1;0" times="0;1" dur="1.1s" begin="-0.33s" repeatCount="indefinite"></animate>
  </rect>
</g><g transform="rotate(252 50 50)">
  <rect x="46" y="15" rx="9.200000000000001" ry="3" width="8" height="10" fill="#ff727d">
    <animate attributeName="opacity" values="1;0" times="0;1" dur="1.1s" begin="-0.30800000000000005s" repeatCount="indefinite"></animate>
  </rect>
</g><g transform="rotate(259.2 50 50)">
  <rect x="46" y="15" rx="9.200000000000001" ry="3" width="8" height="10" fill="#ff727d">
    <animate attributeName="opacity" values="1;0" times="0;1" dur="1.1s" begin="-0.28600000000000003s" repeatCount="indefinite"></animate>
  </rect>
</g><g transform="rotate(266.4 50 50)">
  <rect x="46" y="15" rx="9.200000000000001" ry="3" width="8" height="10" fill="#ff727d">
    <animate attributeName="opacity" values="1;0" times="0;1" dur="1.1s" begin="-0.264s" repeatCount="indefinite"></animate>
  </rect>
</g><g transform="rotate(273.6 50 50)">
  <rect x="46" y="15" rx="9.200000000000001" ry="3" width="8" height="10" fill="#ff727d">
    <animate attributeName="opacity" values="1;0" times="0;1" dur="1.1s" begin="-0.24200000000000002s" repeatCount="indefinite"></animate>
  </rect>
</g><g transform="rotate(280.8 50 50)">
  <rect x="46" y="15" rx="9.200000000000001" ry="3" width="8" height="10" fill="#ff727d">
    <animate attributeName="opacity" values="1;0" times="0;1" dur="1.1s" begin="-0.22s" repeatCount="indefinite"></animate>
  </rect>
</g><g transform="rotate(288 50 50)">
  <rect x="46" y="15" rx="9.200000000000001" ry="3" width="8" height="10" fill="#ff727d">
    <animate attributeName="opacity" values="1;0" times="0;1" dur="1.1s" begin="-0.198s" repeatCount="indefinite"></animate>
  </rect>
</g><g transform="rotate(295.2 50 50)">
  <rect x="46" y="15" rx="9.200000000000001" ry="3" width="8" height="10" fill="#ff727d">
    <animate attributeName="opacity" values="1;0" times="0;1" dur="1.1s" begin="-0.17600000000000002s" repeatCount="indefinite"></animate>
  </rect>
</g><g transform="rotate(302.4 50 50)">
  <rect x="46" y="15" rx="9.200000000000001" ry="3" width="8" height="10" fill="#ff727d">
    <animate attributeName="opacity" values="1;0" times="0;1" dur="1.1s" begin="-0.15400000000000003s" repeatCount="indefinite"></animate>
  </rect>
</g><g transform="rotate(309.6 50 50)">
  <rect x="46" y="15" rx="9.200000000000001" ry="3" width="8" height="10" fill="#ff727d">
    <animate attributeName="opacity" values="1;0" times="0;1" dur="1.1s" begin="-0.132s" repeatCount="indefinite"></animate>
  </rect>
</g><g transform="rotate(316.8 50 50)">
  <rect x="46" y="15" rx="9.200000000000001" ry="3" width="8" height="10" fill="#ff727d">
    <animate attributeName="opacity" values="1;0" times="0;1" dur="1.1s" begin="-0.11s" repeatCount="indefinite"></animate>
  </rect>
</g><g transform="rotate(324 50 50)">
  <rect x="46" y="15" rx="9.200000000000001" ry="3" width="8" height="10" fill="#ff727d">
    <animate attributeName="opacity" values="1;0" times="0;1" dur="1.1s" begin="-0.08800000000000001s" repeatCount="indefinite"></animate>
  </rect>
</g><g transform="rotate(331.2 50 50)">
  <rect x="46" y="15" rx="9.200000000000001" ry="3" width="8" height="10" fill="#ff727d">
    <animate attributeName="opacity" values="1;0" times="0;1" dur="1.1s" begin="-0.066s" repeatCount="indefinite"></animate>
  </rect>
</g><g transform="rotate(338.4 50 50)">
  <rect x="46" y="15" rx="9.200000000000001" ry="3" width="8" height="10" fill="#ff727d">
    <animate attributeName="opacity" values="1;0" times="0;1" dur="1.1s" begin="-0.044000000000000004s" repeatCount="indefinite"></animate>
  </rect>
</g><g transform="rotate(345.6 50 50)">
  <rect x="46" y="15" rx="9.200000000000001" ry="3" width="8" height="10" fill="#ff727d">
    <animate attributeName="opacity" values="1;0" times="0;1" dur="1.1s" begin="-0.022000000000000002s" repeatCount="indefinite"></animate>
  </rect>
</g><g transform="rotate(352.8 50 50)">
  <rect x="46" y="15" rx="9.200000000000001" ry="3" width="8" height="10" fill="#ff727d">
    <animate attributeName="opacity" values="1;0" times="0;1" dur="1.1s" begin="0s" repeatCount="indefinite"></animate>
  </rect>
</g></svg>